<svg xmlns="http://www.w3.org/2000/svg">
  <!-- Usage -->
  <!-- <svg class="nav-icon"><use xlink:href="assets/img/icons.svg#icon-xxx"></use></svg> -->

  <symbol id="icon-window" viewBox="0 0 14 16"><path d="M5 3h1v1h-1V3zM3 3h1v1h-1V3zM1 3h1v1H1V3zM13 13H1V5h12V13zM13 4H7v-1h6V4zM14 3c0-0.55-0.45-1-1-1H1c-0.55 0-1 0.45-1 1v10c0 0.55 0.45 1 1 1h12c0.55 0 1-0.45 1-1V3z" /></symbol>
  <symbol id="icon-menu" viewBox="0 0 12 16"><path d="M11.41 9H0.59c-0.59 0-0.59-0.41-0.59-1s0-1 0.59-1h10.81c0.59 0 0.59 0.41 0.59 1s0 1-0.59 1z m0-4H0.59c-0.59 0-0.59-0.41-0.59-1s0-1 0.59-1h10.81c0.59 0 0.59 0.41 0.59 1s0 1-0.59 1zM0.59 11h10.81c0.59 0 0.59 0.41 0.59 1s0 1-0.59 1H0.59c-0.59 0-0.59-0.41-0.59-1s0-1 0.59-1z" /></symbol>
  <symbol id="icon-monitor" viewBox="0 0 16 16"><path d="M15 2H1c-0.55 0-1 0.45-1 1v9c0 0.55 0.45 1 1 1h5.34c-0.25 0.61-0.86 1.39-2.34 2h8c-1.48-0.61-2.09-1.39-2.34-2h5.34c0.55 0 1-0.45 1-1V3c0-0.55-0.45-1-1-1z m0 9H1V3h14v8z" /></symbol>
  <symbol id="icon-comm" viewBox="0 0 16 16"><path d="M10 1c-0.17 0-0.36 0.05-0.52 0.14-1.44 0.88-4.98 3.44-6.48 3.86-1.38 0-3 0.67-3 2.5s1.63 2.5 3 2.5c0.3 0.08 0.64 0.23 1 0.41v4.59h2V11.55c1.34 0.86 2.69 1.83 3.48 2.31 0.16 0.09 0.34 0.14 0.52 0.14 0.52 0 1-0.42 1-1V2c0-0.58-0.48-1-1-1z m0 12c-0.38-0.23-0.89-0.58-1.5-1-0.16-0.11-0.33-0.22-0.5-0.34V3.31c0.16-0.11 0.31-0.2 0.47-0.31 0.61-0.41 1.16-0.77 1.53-1v11z m2-6h4v1H12v-1z m0 2l4 2v1L12 10v-1z m4-6v1L12 6v-1l4-2z" /></symbol>
  <symbol id="icon-system" viewBox="0 0 16 16"><path d="M8 5h-1v-1h1v1z m4 3h-1v1h1v-1zM5 5h-1v1h1v-1z m-1 3h-1v1h1v-1z m11-5.5l-0.5-0.5-6.5 5c-0.06-0.02-1 0-1 0-0.55 0-1 0.45-1 1v1c0 0.55 0.45 1 1 1h1c0.55 0 1-0.45 1-1v-0.92l6-5.58zM13.41 6.59c0.19 0.61 0.3 1.25 0.3 1.91 0 3.42-2.78 6.2-6.2 6.2S1.3 11.92 1.3 8.5s2.78-6.2 6.2-6.2c1.2 0 2.31 0.34 3.27 0.94l0.94-0.94c-1.19-0.81-2.64-1.3-4.2-1.3C3.36 1 0 4.36 0 8.5s3.36 7.5 7.5 7.5 7.5-3.36 7.5-7.5c0-1.03-0.2-2.02-0.59-2.91l-1 1z" /></symbol>
  <symbol id="icon-media" viewBox="0 0 12 16"><path d="M6 5h2v2H6V5z m6-0.5v9.5c0 0.55-0.45 1-1 1H1c-0.55 0-1-0.45-1-1V2c0-0.55 0.45-1 1-1h7.5l3.5 3.5z m-1 0.5L8 2H1v11l3-5 2 4 2-2 3 3V5z" /></symbol>
  <symbol id="icon-notify" viewBox="0 0 32 32"><path d="M32.047 25c0-9-8-7-8-14 0-0.58-0.056-1.076-0.158-1.498-0.526-3.532-2.88-6.366-5.93-7.23 0.027-0.123 0.041-0.251 0.041-0.382 0-1.040-0.9-1.891-2-1.891s-2 0.851-2 1.891c0 0.131 0.014 0.258 0.041 0.382-3.421 0.969-5.966 4.416-6.039 8.545-0.001 0.060-0.002 0.121-0.002 0.183 0 7-8 5-8 14 0 2.382 5.331 4.375 12.468 4.878 0.673 1.263 2.002 2.122 3.532 2.122s2.86-0.86 3.532-2.122c7.137-0.503 12.468-2.495 12.468-4.878 0-0.007-0.001-0.014-0.001-0.021l0.048 0.021zM25.82 26.691c-1.695 0.452-3.692 0.777-5.837 0.958-0.178-2.044-1.893-3.648-3.984-3.648s-3.805 1.604-3.984 3.648c-2.144-0.18-4.142-0.506-5.837-0.958-2.332-0.622-3.447-1.318-3.855-1.691 0.408-0.372 1.523-1.068 3.855-1.691 2.712-0.724 6.199-1.122 9.82-1.122s7.109 0.398 9.82 1.122c2.332 0.622 3.447 1.318 3.855 1.691-0.408 0.372-1.523 1.068-3.855 1.691z"></path>
</symbol>

</svg>
